<?xml version="1.0" encoding="UTF-8" standalone="no"?>
<!-- Created with Inkscape (http://www.inkscape.org/) -->

<svg
   width="51.887482mm"
   height="47.337051mm"
   viewBox="0 0 51.887482 47.33705"
   version="1.1"
   id="svg1"
   inkscape:version="1.4 (86a8ad7, 2024-10-11)"
   sodipodi:docname="zaimu.logo.svg"
   inkscape:export-filename="D:\SEBASTIAN\_Projects\zaimu\resources\images\icons\zaimu_black_logo.svg"
   inkscape:export-xdpi="96.006966"
   inkscape:export-ydpi="96.006966"
   xmlns:inkscape="http://www.inkscape.org/namespaces/inkscape"
   xmlns:sodipodi="http://sodipodi.sourceforge.net/DTD/sodipodi-0.dtd"
   xmlns="http://www.w3.org/2000/svg"
   xmlns:svg="http://www.w3.org/2000/svg">
  <sodipodi:namedview
     id="namedview1"
     pagecolor="#ffffff"
     bordercolor="#999999"
     borderopacity="1"
     inkscape:showpageshadow="2"
     inkscape:pageopacity="0"
     inkscape:pagecheckerboard="0"
     inkscape:deskcolor="#d1d1d1"
     inkscape:document-units="mm"
     inkscape:zoom="0.35355339"
     inkscape:cx="517.60216"
     inkscape:cy="832.97179"
     inkscape:window-width="1920"
     inkscape:window-height="1009"
     inkscape:window-x="-8"
     inkscape:window-y="-8"
     inkscape:window-maximized="1"
     inkscape:current-layer="layer1">
    <inkscape:page
       x="0"
       y="7.9344609e-15"
       width="51.887482"
       height="47.337048"
       id="page2"
       margin="0"
       bleed="0" />
  </sodipodi:namedview>
  <defs
     id="defs1" />
  <g
     inkscape:label="Layer 1"
     inkscape:groupmode="layer"
     id="layer1"
     transform="translate(-142.34947,-269.43845)">
    <g
       id="g6"
       inkscape:label="Default"
       transform="translate(121.20787,90.508813)">
      <path
         d="m 25.995384,195.05853 c -2.68917,0 -4.85377,2.16461 -4.85377,4.85376 v 21.50062 c 0,2.68917 2.1646,4.85377 4.85377,4.85377 h 42.17949 c 2.68916,0 4.85421,-2.1646 4.85421,-4.85377 v -21.50062 c 0,-2.68915 -2.16505,-4.85376 -4.85421,-4.85376 z m -0.35231,1.58965 h 42.88456 c 0.58434,0 1.05467,0.47032 1.05467,1.05467 0,0.58436 -0.47033,1.05469 -1.05467,1.05469 h -42.88456 c -0.58435,0 -1.05512,-0.47033 -1.05512,-1.05469 0,-0.58435 0.47077,-1.05467 1.05512,-1.05467 z m 10.01225,10.31969 a 4.6345803,4.6345803 0 0 1 4.63476,4.63475 4.6345803,4.6345803 0 0 1 -4.63476,4.63475 4.6345803,4.6345803 0 0 1 -4.63474,-4.63475 4.6345803,4.6345803 0 0 1 4.63474,-4.63475 z m 22.97853,0 a 4.6345803,4.6345803 0 0 1 4.63474,4.63475 4.6345803,4.6345803 0 0 1 -4.63474,4.63475 4.6345803,4.6345803 0 0 1 -4.6343,-4.63475 4.6345803,4.6345803 0 0 1 4.6343,-4.63475 z"
         style="display:inline;fill:#303030;fill-opacity:1;stroke-width:0.152262;stroke-opacity:0.2"
         id="path5" />
      <path
         d="m 34.992004,178.93134 c -1.85122,0.0522 -3.5239,1.29292 -4.04906,3.17481 l -3.98893,14.2938 c -0.13445,0.48182 -0.17811,0.96601 -0.14945,1.43751 h 40.11053 l 1.47386,-5.28192 c 0.64634,-2.31617 -0.69797,-4.7011 -3.01414,-5.34744 l -29.08442,-8.11609 c -0.43428,-0.12118 -0.87118,-0.17273 -1.29839,-0.16067 z"
         style="fill:#404040;fill-opacity:1;stroke:none;stroke-width:0.809423;stroke-dasharray:none;stroke-opacity:1"
         id="path6" />
    </g>
  </g>
</svg>
